<?xml version="1.0" standalone="no"?>
<!DOCTYPE svg PUBLIC "-//W3C//DTD SVG 20010904//EN"
 "http://www.w3.org/TR/2001/REC-SVG-20010904/DTD/svg10.dtd">
<svg version="1.0" xmlns="http://www.w3.org/2000/svg"
 width="100.000000pt" height="100.000000pt" viewBox="0 0 100.000000 100.000000"
 preserveAspectRatio="xMidYMid meet">
<metadata>
Created by potrace 1.11, written by Peter Selinger 2001-2013
</metadata>
<g transform="translate(0.000000,100.000000) scale(0.100000,-0.100000)"
fill="#000000" stroke="none">
<path d="M415 854 c27 -40 62 -140 52 -150 -16 -16 -34 8 -46 59 -14 62 -49
107 -83 106 -15 0 -18 -3 -8 -6 32 -12 49 -37 65 -98 17 -61 17 -64 -1 -89
-11 -14 -22 -26 -25 -26 -3 0 -9 19 -15 43 -8 39 -11 42 -39 39 -16 -2 -34 -7
-38 -11 -12 -12 13 -58 40 -76 31 -21 30 -1 -2 31 -31 31 -32 44 -1 44 22 0
25 -5 31 -55 4 -31 4 -59 0 -63 -3 -4 -24 12 -46 35 -21 23 -39 40 -39 37 0
-14 26 -53 57 -85 30 -31 33 -39 24 -62 -7 -17 -7 -28 -1 -32 6 -4 10 1 10 9
0 25 22 66 36 66 26 0 51 -77 68 -205 2 -16 2 6 0 50 -4 95 -31 184 -59 199
-11 6 -22 12 -24 14 -3 1 6 13 19 27 51 54 99 22 189 -124 60 -98 112 -154
158 -172 13 -5 50 -8 81 -8 l57 2 -61 7 c-67 7 -109 31 -148 83 -32 42 -137
219 -133 223 2 2 28 1 58 -3 50 -6 59 -11 113 -67 47 -49 56 -55 42 -29 -9 18
-30 48 -47 67 l-30 35 48 4 c28 2 8 4 -47 6 -111 3 -172 12 -177 27 -2 7 32
10 109 8 l113 -3 -105 10 c-58 5 -111 11 -117 14 -21 7 -15 23 10 28 20 4 20
4 -4 6 -19 1 -30 11 -48 47 -12 26 -19 50 -14 55 4 4 37 10 73 12 56 3 52 3
-27 5 l-92 2 24 -36z"/>
<path d="M298 813 c-8 -10 -22 -31 -32 -47 -10 -16 -21 -24 -25 -19 -3 6 -19
11 -36 11 -16 1 -41 3 -54 4 -13 2 -26 -3 -29 -11 -3 -9 1 -11 16 -7 14 5 27
-2 46 -25 26 -30 27 -31 21 -7 -8 33 13 48 31 23 8 -10 15 -17 17 -14 2 2 15
25 30 51 17 29 36 48 50 51 21 4 21 4 1 6 -11 0 -28 -7 -36 -16z"/>
<path d="M116 693 c-11 -11 -7 -20 9 -20 8 0 15 4 15 8 0 11 -16 20 -24 12z"/>
<path d="M778 683 c6 -2 18 -2 25 0 6 3 1 5 -13 5 -14 0 -19 -2 -12 -5z"/>
<path d="M100 618 c0 -9 5 -20 10 -23 13 -8 13 5 0 25 -8 13 -10 13 -10 -2z"/>
<path d="M493 603 c8 -16 20 -53 26 -83 19 -84 19 -84 36 -70 8 6 19 9 24 6 6
-4 -10 34 -35 84 -25 49 -50 90 -55 90 -5 0 -3 -12 4 -27z"/>
<path d="M151 604 c0 -11 3 -14 6 -6 3 7 2 16 -1 19 -3 4 -6 -2 -5 -13z"/>
<path d="M185 533 c4 -32 13 -71 20 -88 12 -27 12 -23 8 43 -7 81 0 87 59 56
16 -9 27 -11 23 -5 -9 15 -80 51 -101 51 -14 0 -15 -8 -9 -57z"/>
<path d="M130 560 c0 -5 -7 -7 -15 -4 -8 4 -15 1 -15 -5 0 -6 9 -11 21 -11 11
0 18 -4 15 -9 -3 -5 1 -11 9 -15 17 -6 20 -63 5 -86 -9 -13 -12 -13 -23 0 -7
8 -32 16 -57 17 l-45 3 55 -22 c81 -32 195 -149 245 -250 53 -108 60 -114 138
-101 34 6 88 20 119 32 73 27 133 27 176 1 l34 -21 63 26 c35 14 71 25 81 25
9 0 14 3 11 7 -4 3 -31 1 -60 -6 -45 -11 -60 -11 -100 3 -39 13 -60 14 -119 6
-39 -6 -81 -13 -94 -16 -12 -3 -42 3 -68 15 -46 20 -46 20 -47 73 l-2 53 -8
-62 c-8 -64 -26 -110 -37 -98 -4 4 -10 37 -13 73 l-6 67 -1 -57 c-2 -59 -15
-76 -26 -35 -15 57 10 145 39 134 16 -7 24 19 17 61 -5 38 -22 43 -22 7 0 -27
-10 -31 -41 -15 -15 8 -19 7 -19 -5 0 -10 10 -15 30 -15 36 0 37 -4 6 -40 -18
-22 -26 -26 -36 -17 -10 10 -10 7 -1 -11 7 -13 11 -30 9 -38 -2 -9 -22 12 -50
51 -26 35 -65 77 -87 92 l-40 28 -1 80 c0 55 -3 75 -10 65 -8 -12 -10 -11 -10
8 0 12 -4 22 -10 22 -5 0 -10 -4 -10 -10z"/>
<path d="M392 490 c0 -14 2 -19 5 -12 2 6 2 18 0 25 -3 6 -5 1 -5 -13z"/>
<path d="M392 430 c0 -14 2 -19 5 -12 2 6 2 18 0 25 -3 6 -5 1 -5 -13z"/>
<path d="M598 431 c1 -2 -4 -14 -12 -27 -18 -26 -12 -34 26 -34 34 0 35 7 5
40 -12 14 -21 24 -19 21z"/>
<path d="M360 415 c0 -5 5 -17 10 -25 5 -8 10 -10 10 -5 0 6 -5 17 -10 25 -5
8 -10 11 -10 5z"/>
<path d="M580 303 c0 -5 28 -15 62 -21 105 -19 106 -44 3 -50 -57 -4 -65 -7
-65 -24 0 -19 4 -20 48 -14 26 4 73 10 104 13 52 5 56 7 48 23 -19 36 -200
101 -200 73z"/>
</g>
</svg>
